<mxfile host="Electron" modified="2023-04-26T09:48:14.495Z" agent="Mozilla/5.0 (X11; Linux x86_64) AppleWebKit/537.36 (KHTML, like Gecko) draw.io/21.2.1 Chrome/112.0.5615.87 Electron/24.1.2 Safari/537.36" etag="4OMDVWtwm5R7iPQ5p5Ix" version="21.2.1" type="device">
  <diagram name="Page-1" id="UxJE_L6ybpkGZ0HcCmhJ">
    <mxGraphModel dx="2284" dy="1005" grid="1" gridSize="10" guides="1" tooltips="1" connect="1" arrows="1" fold="1" page="1" pageScale="1" pageWidth="850" pageHeight="1100" math="0" shadow="0">
      <root>
        <mxCell id="0" />
        <mxCell id="1" parent="0" />
        <mxCell id="jW4ofVIRerDkPaJW5YcM-4" value="" style="edgeStyle=orthogonalEdgeStyle;rounded=0;orthogonalLoop=1;jettySize=auto;html=1;fontFamily=Computer Modern;" parent="1" source="jW4ofVIRerDkPaJW5YcM-2" target="jW4ofVIRerDkPaJW5YcM-3" edge="1">
          <mxGeometry relative="1" as="geometry" />
        </mxCell>
        <mxCell id="jW4ofVIRerDkPaJW5YcM-2" value="expression" style="ellipse;whiteSpace=wrap;html=1;fontSize=18;fontFamily=Computer Modern;fillColor=#dae8fc;strokeColor=#6c8ebf;" parent="1" vertex="1">
          <mxGeometry x="80" y="380" width="110" height="50" as="geometry" />
        </mxCell>
        <mxCell id="jW4ofVIRerDkPaJW5YcM-3" value="sum" style="ellipse;whiteSpace=wrap;html=1;fontSize=18;fontFamily=Computer Modern;fillColor=#dae8fc;strokeColor=#6c8ebf;" parent="1" vertex="1">
          <mxGeometry x="80" y="460" width="110" height="50" as="geometry" />
        </mxCell>
        <mxCell id="jW4ofVIRerDkPaJW5YcM-5" value="difference" style="ellipse;whiteSpace=wrap;html=1;fontSize=18;fontFamily=Computer Modern;" parent="1" vertex="1">
          <mxGeometry x="225" y="550" width="110" height="50" as="geometry" />
        </mxCell>
        <mxCell id="jW4ofVIRerDkPaJW5YcM-7" value="product" style="ellipse;whiteSpace=wrap;html=1;fontSize=18;fontFamily=Computer Modern;fillColor=#dae8fc;strokeColor=#6c8ebf;" parent="1" vertex="1">
          <mxGeometry x="-65" y="550" width="110" height="50" as="geometry" />
        </mxCell>
        <mxCell id="jW4ofVIRerDkPaJW5YcM-9" value="&#39;a&#39;" style="ellipse;whiteSpace=wrap;html=1;fontSize=18;fontFamily=Computer Modern;" parent="1" vertex="1">
          <mxGeometry x="-125" y="640" width="60" height="50" as="geometry" />
        </mxCell>
        <mxCell id="jW4ofVIRerDkPaJW5YcM-12" value="&#39;+&#39;" style="ellipse;whiteSpace=wrap;html=1;fontSize=18;fontFamily=Computer Modern;" parent="1" vertex="1">
          <mxGeometry x="105" y="550" width="60" height="50" as="geometry" />
        </mxCell>
        <mxCell id="jW4ofVIRerDkPaJW5YcM-14" value="&#39;*&#39;" style="ellipse;whiteSpace=wrap;html=1;fontSize=18;fontFamily=Computer Modern;" parent="1" vertex="1">
          <mxGeometry x="-40" y="640" width="60" height="50" as="geometry" />
        </mxCell>
        <mxCell id="jW4ofVIRerDkPaJW5YcM-16" value="&#39;b&#39;" style="ellipse;whiteSpace=wrap;html=1;fontSize=18;fontFamily=Computer Modern;fillColor=#dae8fc;strokeColor=#6c8ebf;" parent="1" vertex="1">
          <mxGeometry x="45" y="640" width="60" height="50" as="geometry" />
        </mxCell>
        <mxCell id="jW4ofVIRerDkPaJW5YcM-19" value="" style="endArrow=classic;html=1;rounded=0;fontFamily=Computer Modern;" parent="1" source="jW4ofVIRerDkPaJW5YcM-3" target="jW4ofVIRerDkPaJW5YcM-12" edge="1">
          <mxGeometry width="50" height="50" relative="1" as="geometry">
            <mxPoint x="150" y="530" as="sourcePoint" />
            <mxPoint x="200" y="480" as="targetPoint" />
          </mxGeometry>
        </mxCell>
        <mxCell id="jW4ofVIRerDkPaJW5YcM-20" value="" style="endArrow=classic;html=1;rounded=0;fontFamily=Computer Modern;" parent="1" source="jW4ofVIRerDkPaJW5YcM-3" target="jW4ofVIRerDkPaJW5YcM-5" edge="1">
          <mxGeometry width="50" height="50" relative="1" as="geometry">
            <mxPoint x="150" y="530" as="sourcePoint" />
            <mxPoint x="200" y="480" as="targetPoint" />
          </mxGeometry>
        </mxCell>
        <mxCell id="jW4ofVIRerDkPaJW5YcM-21" value="" style="endArrow=classic;html=1;rounded=0;fontFamily=Computer Modern;" parent="1" source="jW4ofVIRerDkPaJW5YcM-3" target="jW4ofVIRerDkPaJW5YcM-7" edge="1">
          <mxGeometry width="50" height="50" relative="1" as="geometry">
            <mxPoint x="150" y="530" as="sourcePoint" />
            <mxPoint x="200" y="480" as="targetPoint" />
          </mxGeometry>
        </mxCell>
        <mxCell id="jW4ofVIRerDkPaJW5YcM-22" value="" style="endArrow=classic;html=1;rounded=0;fontFamily=Computer Modern;" parent="1" source="jW4ofVIRerDkPaJW5YcM-7" target="jW4ofVIRerDkPaJW5YcM-9" edge="1">
          <mxGeometry width="50" height="50" relative="1" as="geometry">
            <mxPoint x="255" y="500" as="sourcePoint" />
            <mxPoint x="305" y="450" as="targetPoint" />
          </mxGeometry>
        </mxCell>
        <mxCell id="jW4ofVIRerDkPaJW5YcM-23" value="" style="endArrow=classic;html=1;rounded=0;fontFamily=Computer Modern;" parent="1" source="jW4ofVIRerDkPaJW5YcM-7" target="jW4ofVIRerDkPaJW5YcM-14" edge="1">
          <mxGeometry width="50" height="50" relative="1" as="geometry">
            <mxPoint x="255" y="500" as="sourcePoint" />
            <mxPoint x="305" y="450" as="targetPoint" />
          </mxGeometry>
        </mxCell>
        <mxCell id="jW4ofVIRerDkPaJW5YcM-24" value="" style="endArrow=classic;html=1;rounded=0;fontFamily=Computer Modern;" parent="1" source="jW4ofVIRerDkPaJW5YcM-7" target="jW4ofVIRerDkPaJW5YcM-16" edge="1">
          <mxGeometry width="50" height="50" relative="1" as="geometry">
            <mxPoint x="255" y="500" as="sourcePoint" />
            <mxPoint x="305" y="450" as="targetPoint" />
          </mxGeometry>
        </mxCell>
        <mxCell id="jW4ofVIRerDkPaJW5YcM-26" value="a * b + (c - d)" style="text;html=1;strokeColor=none;fillColor=none;align=center;verticalAlign=middle;whiteSpace=wrap;rounded=0;fontSize=18;fontFamily=Computer Modern;" parent="1" vertex="1">
          <mxGeometry x="87.5" y="310" width="112.5" height="30" as="geometry" />
        </mxCell>
        <mxCell id="ndfckBKJElFTTQLL1Q0n-37" value="&#39;c&#39;" style="ellipse;whiteSpace=wrap;html=1;fontSize=18;fontFamily=Computer Modern;" vertex="1" parent="1">
          <mxGeometry x="165" y="640" width="60" height="50" as="geometry" />
        </mxCell>
        <mxCell id="ndfckBKJElFTTQLL1Q0n-38" value="&#39;d&#39;" style="ellipse;whiteSpace=wrap;html=1;fontSize=18;fontFamily=Computer Modern;" vertex="1" parent="1">
          <mxGeometry x="335" y="640" width="60" height="50" as="geometry" />
        </mxCell>
        <mxCell id="ndfckBKJElFTTQLL1Q0n-39" value="&#39;-&#39;" style="ellipse;whiteSpace=wrap;html=1;fontSize=18;fontFamily=Computer Modern;" vertex="1" parent="1">
          <mxGeometry x="250" y="640" width="60" height="50" as="geometry" />
        </mxCell>
        <mxCell id="ndfckBKJElFTTQLL1Q0n-40" value="" style="endArrow=classic;html=1;rounded=0;" edge="1" parent="1" source="jW4ofVIRerDkPaJW5YcM-5" target="ndfckBKJElFTTQLL1Q0n-37">
          <mxGeometry width="50" height="50" relative="1" as="geometry">
            <mxPoint x="175" y="500" as="sourcePoint" />
            <mxPoint x="225" y="450" as="targetPoint" />
          </mxGeometry>
        </mxCell>
        <mxCell id="ndfckBKJElFTTQLL1Q0n-41" value="" style="endArrow=classic;html=1;rounded=0;" edge="1" parent="1" source="jW4ofVIRerDkPaJW5YcM-5" target="ndfckBKJElFTTQLL1Q0n-39">
          <mxGeometry width="50" height="50" relative="1" as="geometry">
            <mxPoint x="175" y="500" as="sourcePoint" />
            <mxPoint x="225" y="450" as="targetPoint" />
          </mxGeometry>
        </mxCell>
        <mxCell id="ndfckBKJElFTTQLL1Q0n-42" value="" style="endArrow=classic;html=1;rounded=0;" edge="1" parent="1" source="jW4ofVIRerDkPaJW5YcM-5" target="ndfckBKJElFTTQLL1Q0n-38">
          <mxGeometry width="50" height="50" relative="1" as="geometry">
            <mxPoint x="175" y="500" as="sourcePoint" />
            <mxPoint x="225" y="450" as="targetPoint" />
          </mxGeometry>
        </mxCell>
        <mxCell id="ndfckBKJElFTTQLL1Q0n-43" value="a * &lt;font color=&quot;#00994d&quot;&gt;(b - e) &lt;/font&gt;+ (c - d)" style="text;html=1;strokeColor=none;fillColor=none;align=center;verticalAlign=middle;whiteSpace=wrap;rounded=0;fontSize=18;fontFamily=Computer Modern;" vertex="1" parent="1">
          <mxGeometry x="730" y="330" width="160" height="30" as="geometry" />
        </mxCell>
        <mxCell id="ndfckBKJElFTTQLL1Q0n-65" value="" style="edgeStyle=orthogonalEdgeStyle;rounded=0;orthogonalLoop=1;jettySize=auto;html=1;fontFamily=Computer Modern;" edge="1" parent="1" source="ndfckBKJElFTTQLL1Q0n-66" target="ndfckBKJElFTTQLL1Q0n-67">
          <mxGeometry relative="1" as="geometry" />
        </mxCell>
        <mxCell id="ndfckBKJElFTTQLL1Q0n-66" value="expression" style="ellipse;whiteSpace=wrap;html=1;fontSize=18;fontFamily=Computer Modern;" vertex="1" parent="1">
          <mxGeometry x="750" y="380" width="110" height="50" as="geometry" />
        </mxCell>
        <mxCell id="ndfckBKJElFTTQLL1Q0n-67" value="sum" style="ellipse;whiteSpace=wrap;html=1;fontSize=18;fontFamily=Computer Modern;" vertex="1" parent="1">
          <mxGeometry x="750" y="460" width="110" height="50" as="geometry" />
        </mxCell>
        <mxCell id="ndfckBKJElFTTQLL1Q0n-68" value="difference" style="ellipse;whiteSpace=wrap;html=1;fontSize=18;fontFamily=Computer Modern;" vertex="1" parent="1">
          <mxGeometry x="905" y="550" width="110" height="50" as="geometry" />
        </mxCell>
        <mxCell id="ndfckBKJElFTTQLL1Q0n-69" value="product" style="ellipse;whiteSpace=wrap;html=1;fontSize=18;fontFamily=Computer Modern;" vertex="1" parent="1">
          <mxGeometry x="540" y="550" width="110" height="50" as="geometry" />
        </mxCell>
        <mxCell id="ndfckBKJElFTTQLL1Q0n-70" value="&#39;a&#39;" style="ellipse;whiteSpace=wrap;html=1;fontSize=18;fontFamily=Computer Modern;" vertex="1" parent="1">
          <mxGeometry x="460" y="640" width="60" height="50" as="geometry" />
        </mxCell>
        <mxCell id="ndfckBKJElFTTQLL1Q0n-71" value="&#39;+&#39;" style="ellipse;whiteSpace=wrap;html=1;fontSize=18;fontFamily=Computer Modern;" vertex="1" parent="1">
          <mxGeometry x="775" y="550" width="60" height="50" as="geometry" />
        </mxCell>
        <mxCell id="ndfckBKJElFTTQLL1Q0n-72" value="&#39;*&#39;" style="ellipse;whiteSpace=wrap;html=1;fontSize=18;fontFamily=Computer Modern;" vertex="1" parent="1">
          <mxGeometry x="565" y="640" width="60" height="50" as="geometry" />
        </mxCell>
        <mxCell id="ndfckBKJElFTTQLL1Q0n-73" value="difference" style="ellipse;whiteSpace=wrap;html=1;fontSize=18;fontFamily=Computer Modern;" vertex="1" parent="1">
          <mxGeometry x="660" y="640" width="110" height="50" as="geometry" />
        </mxCell>
        <mxCell id="ndfckBKJElFTTQLL1Q0n-74" value="" style="endArrow=classic;html=1;rounded=0;fontFamily=Computer Modern;" edge="1" parent="1" source="ndfckBKJElFTTQLL1Q0n-67" target="ndfckBKJElFTTQLL1Q0n-71">
          <mxGeometry width="50" height="50" relative="1" as="geometry">
            <mxPoint x="820" y="530" as="sourcePoint" />
            <mxPoint x="870" y="480" as="targetPoint" />
          </mxGeometry>
        </mxCell>
        <mxCell id="ndfckBKJElFTTQLL1Q0n-75" value="" style="endArrow=classic;html=1;rounded=0;fontFamily=Computer Modern;" edge="1" parent="1" source="ndfckBKJElFTTQLL1Q0n-67" target="ndfckBKJElFTTQLL1Q0n-68">
          <mxGeometry width="50" height="50" relative="1" as="geometry">
            <mxPoint x="820" y="530" as="sourcePoint" />
            <mxPoint x="870" y="480" as="targetPoint" />
          </mxGeometry>
        </mxCell>
        <mxCell id="ndfckBKJElFTTQLL1Q0n-76" value="" style="endArrow=classic;html=1;rounded=0;fontFamily=Computer Modern;" edge="1" parent="1" source="ndfckBKJElFTTQLL1Q0n-67" target="ndfckBKJElFTTQLL1Q0n-69">
          <mxGeometry width="50" height="50" relative="1" as="geometry">
            <mxPoint x="820" y="530" as="sourcePoint" />
            <mxPoint x="870" y="480" as="targetPoint" />
          </mxGeometry>
        </mxCell>
        <mxCell id="ndfckBKJElFTTQLL1Q0n-77" value="" style="endArrow=classic;html=1;rounded=0;fontFamily=Computer Modern;" edge="1" parent="1" source="ndfckBKJElFTTQLL1Q0n-69" target="ndfckBKJElFTTQLL1Q0n-70">
          <mxGeometry width="50" height="50" relative="1" as="geometry">
            <mxPoint x="860" y="500" as="sourcePoint" />
            <mxPoint x="910" y="450" as="targetPoint" />
          </mxGeometry>
        </mxCell>
        <mxCell id="ndfckBKJElFTTQLL1Q0n-78" value="" style="endArrow=classic;html=1;rounded=0;fontFamily=Computer Modern;" edge="1" parent="1" source="ndfckBKJElFTTQLL1Q0n-69" target="ndfckBKJElFTTQLL1Q0n-72">
          <mxGeometry width="50" height="50" relative="1" as="geometry">
            <mxPoint x="860" y="500" as="sourcePoint" />
            <mxPoint x="910" y="450" as="targetPoint" />
          </mxGeometry>
        </mxCell>
        <mxCell id="ndfckBKJElFTTQLL1Q0n-79" value="" style="endArrow=classic;html=1;rounded=0;fontFamily=Computer Modern;" edge="1" parent="1" source="ndfckBKJElFTTQLL1Q0n-69" target="ndfckBKJElFTTQLL1Q0n-73">
          <mxGeometry width="50" height="50" relative="1" as="geometry">
            <mxPoint x="860" y="500" as="sourcePoint" />
            <mxPoint x="910" y="450" as="targetPoint" />
          </mxGeometry>
        </mxCell>
        <mxCell id="ndfckBKJElFTTQLL1Q0n-80" value="&#39;c&#39;" style="ellipse;whiteSpace=wrap;html=1;fontSize=18;fontFamily=Computer Modern;" vertex="1" parent="1">
          <mxGeometry x="835" y="640" width="60" height="50" as="geometry" />
        </mxCell>
        <mxCell id="ndfckBKJElFTTQLL1Q0n-81" value="&#39;d&#39;" style="ellipse;whiteSpace=wrap;html=1;fontSize=18;fontFamily=Computer Modern;" vertex="1" parent="1">
          <mxGeometry x="1025" y="640" width="60" height="50" as="geometry" />
        </mxCell>
        <mxCell id="ndfckBKJElFTTQLL1Q0n-82" value="&#39;-&#39;" style="ellipse;whiteSpace=wrap;html=1;fontSize=18;fontFamily=Computer Modern;" vertex="1" parent="1">
          <mxGeometry x="930" y="640" width="60" height="50" as="geometry" />
        </mxCell>
        <mxCell id="ndfckBKJElFTTQLL1Q0n-83" value="" style="endArrow=classic;html=1;rounded=0;" edge="1" parent="1" source="ndfckBKJElFTTQLL1Q0n-68" target="ndfckBKJElFTTQLL1Q0n-80">
          <mxGeometry width="50" height="50" relative="1" as="geometry">
            <mxPoint x="855" y="500" as="sourcePoint" />
            <mxPoint x="905" y="450" as="targetPoint" />
          </mxGeometry>
        </mxCell>
        <mxCell id="ndfckBKJElFTTQLL1Q0n-84" value="" style="endArrow=classic;html=1;rounded=0;" edge="1" parent="1" source="ndfckBKJElFTTQLL1Q0n-68" target="ndfckBKJElFTTQLL1Q0n-82">
          <mxGeometry width="50" height="50" relative="1" as="geometry">
            <mxPoint x="855" y="500" as="sourcePoint" />
            <mxPoint x="905" y="450" as="targetPoint" />
          </mxGeometry>
        </mxCell>
        <mxCell id="ndfckBKJElFTTQLL1Q0n-85" value="" style="endArrow=classic;html=1;rounded=0;" edge="1" parent="1" source="ndfckBKJElFTTQLL1Q0n-68" target="ndfckBKJElFTTQLL1Q0n-81">
          <mxGeometry width="50" height="50" relative="1" as="geometry">
            <mxPoint x="855" y="500" as="sourcePoint" />
            <mxPoint x="905" y="450" as="targetPoint" />
          </mxGeometry>
        </mxCell>
        <mxCell id="ndfckBKJElFTTQLL1Q0n-86" value="&#39;b&#39;" style="ellipse;whiteSpace=wrap;html=1;fontSize=18;fontFamily=Computer Modern;" vertex="1" parent="1">
          <mxGeometry x="590" y="730" width="60" height="50" as="geometry" />
        </mxCell>
        <mxCell id="ndfckBKJElFTTQLL1Q0n-87" value="&#39;-&#39;" style="ellipse;whiteSpace=wrap;html=1;fontSize=18;fontFamily=Computer Modern;" vertex="1" parent="1">
          <mxGeometry x="685" y="730" width="60" height="50" as="geometry" />
        </mxCell>
        <mxCell id="ndfckBKJElFTTQLL1Q0n-88" value="&#39;e&#39;" style="ellipse;whiteSpace=wrap;html=1;fontSize=18;fontFamily=Computer Modern;" vertex="1" parent="1">
          <mxGeometry x="780" y="730" width="60" height="50" as="geometry" />
        </mxCell>
        <mxCell id="ndfckBKJElFTTQLL1Q0n-89" value="" style="endArrow=classic;html=1;rounded=0;" edge="1" parent="1" source="ndfckBKJElFTTQLL1Q0n-73" target="ndfckBKJElFTTQLL1Q0n-86">
          <mxGeometry width="50" height="50" relative="1" as="geometry">
            <mxPoint x="460" y="550" as="sourcePoint" />
            <mxPoint x="510" y="500" as="targetPoint" />
          </mxGeometry>
        </mxCell>
        <mxCell id="ndfckBKJElFTTQLL1Q0n-90" value="" style="endArrow=classic;html=1;rounded=0;" edge="1" parent="1" source="ndfckBKJElFTTQLL1Q0n-73" target="ndfckBKJElFTTQLL1Q0n-87">
          <mxGeometry width="50" height="50" relative="1" as="geometry">
            <mxPoint x="460" y="550" as="sourcePoint" />
            <mxPoint x="510" y="500" as="targetPoint" />
          </mxGeometry>
        </mxCell>
        <mxCell id="ndfckBKJElFTTQLL1Q0n-91" value="" style="endArrow=classic;html=1;rounded=0;" edge="1" parent="1" source="ndfckBKJElFTTQLL1Q0n-73" target="ndfckBKJElFTTQLL1Q0n-88">
          <mxGeometry width="50" height="50" relative="1" as="geometry">
            <mxPoint x="460" y="550" as="sourcePoint" />
            <mxPoint x="510" y="500" as="targetPoint" />
          </mxGeometry>
        </mxCell>
      </root>
    </mxGraphModel>
  </diagram>
</mxfile>
